<?xml version="1.0" standalone="no"?>
<!DOCTYPE svg PUBLIC "-//W3C//DTD SVG 20010904//EN"
 "http://www.w3.org/TR/2001/REC-SVG-20010904/DTD/svg10.dtd">
<svg version="1.0" xmlns="http://www.w3.org/2000/svg"
 width="700.000000pt" height="700.000000pt" viewBox="0 0 700.000000 700.000000"
 preserveAspectRatio="xMidYMid meet">
<metadata>
Created by potrace 1.14, written by Peter Selinger 2001-2017
</metadata>
<g transform="translate(0.000000,700.000000) scale(0.100000,-0.100000)"
fill="#000000" stroke="none">
<path d="M1670 5939 c-905 -583 -1651 -1063 -1658 -1067 -10 -6 -12 -130 -10
-585 l3 -577 420 261 c231 144 428 264 438 266 16 5 17 -100 17 -2116 l0
-2121 2620 0 2620 0 0 2095 c0 1334 3 2095 10 2095 5 0 189 -101 409 -224 219
-124 413 -232 430 -241 l31 -16 0 578 0 578 -585 339 -585 340 0 728 0 728
-580 0 -580 0 -2 -390 -3 -390 -665 386 c-366 212 -669 388 -675 389 -5 2
-750 -474 -1655 -1056z m2456 -620 c434 -243 931 -522 1104 -619 l315 -177 0
-1969 0 -1969 -2042 -3 -2043 -2 0 2017 0 2018 928 577 c510 317 932 575 938
573 6 -2 366 -203 800 -446z"/>
<path d="M3314 4356 c-297 -68 -544 -291 -645 -584 -33 -96 -34 -99 -34 -272
0 -173 1 -176 34 -272 101 -295 353 -521 649 -584 87 -18 272 -18 360 1 336
70 606 340 677 675 19 89 19 274 1 362 -63 296 -291 550 -584 648 -90 31 -108
33 -247 36 -102 3 -169 -1 -211 -10z"/>
</g>
</svg>
